<?xml version="1.0" encoding="UTF-8"?>
<svg width="30" height="30" version="1.1" viewBox="0 0 700 600" xmlns="http://www.w3.org/2000/svg">
 <path fill="#5f6368" d="m589.93 495.07-144.55-145.07c31.586-38.113 47.277-86.926 43.816-136.3-3.4648-49.379-25.812-95.523-62.41-128.86-36.598-33.328-84.625-51.281-134.11-50.125-49.488 1.1562-96.625 21.328-131.63 56.328-35 35.004-55.172 82.141-56.328 131.63-1.1562 49.484 16.797 97.512 50.125 134.11 33.332 36.598 79.477 58.945 128.86 62.41 49.379 3.4609 98.191-12.23 136.3-43.816l144.55 144.55c4.5039 3.8555 10.656 5.1719 16.344 3.4883 5.6875-1.6797 10.137-6.1289 11.82-11.816 1.6836-5.6914 0.36719-11.844-3.4883-16.348zm-449.93-267.57c0-41.773 16.594-81.832 46.129-111.37 29.539-29.535 69.598-46.129 111.37-46.129s81.832 16.594 111.37 46.129c29.535 29.539 46.129 69.598 46.129 111.37s-16.594 81.832-46.129 111.37c-29.539 29.535-69.598 46.129-111.37 46.129s-81.832-16.594-111.37-46.129c-29.535-29.539-46.129-69.598-46.129-111.37z"/>
</svg>
