<?xml version="1.0" encoding="UTF-8"?>
<svg width="40pt" height="40pt" fill="white" version="1.1" viewBox="0 0 650 600" xmlns="http://www.w3.org/2000/svg">
 <path fill="#5f6368" d="m350 0c-74.262 0-145.48 29.5-197.99 82.012-52.512 52.508-82.012 123.73-82.012 197.99 1.5547 183.09 140.78 280 280 280s278.6-97.066 280-280c0-74.262-29.5-145.48-82.012-197.99-52.508-52.512-123.73-82.012-197.99-82.012zm-141.55 484.4c11.336-41.727 40.508-76.324 79.719-94.551 39.207-18.227 84.465-18.227 123.67 0 39.211 18.227 68.383 52.824 79.719 94.551-41.523 28.957-90.93 44.48-141.55 44.48s-100.03-15.523-141.55-44.48zm54.445-226.33c0-23.102 9.1758-45.262 25.512-61.598 16.336-16.336 38.496-25.512 61.598-25.512s45.262 9.1758 61.598 25.512c16.336 16.336 25.512 38.496 25.512 61.598 0 23.105-9.1758 45.262-25.512 61.598-16.336 16.336-38.496 25.516-61.598 25.516s-45.262-9.1797-61.598-25.516c-16.336-16.336-25.512-38.492-25.512-61.598zm254.64 205.49c-8.7031-23.988-22.434-45.84-40.277-64.082-17.84-18.246-39.379-32.461-63.168-41.695 28.793-18.574 48.109-48.73 52.949-82.652 4.8359-33.926-5.2812-68.277-27.738-94.16-22.453-25.887-55.035-40.754-89.301-40.754s-66.848 14.867-89.301 40.754c-22.457 25.883-32.574 60.234-27.738 94.16 4.8398 33.922 24.156 64.078 52.949 82.652-23.789 9.2344-45.328 23.449-63.168 41.695-17.844 18.242-31.574 40.094-40.277 64.082-37.137-33.805-63.184-78.055-74.711-126.94-11.523-48.879-7.9961-100.11 10.129-146.94 18.125-46.836 49.992-87.098 91.422-115.48 41.426-28.391 90.473-43.586 140.7-43.586s99.27 15.195 140.7 43.586c41.43 28.387 73.297 68.648 91.422 115.48 18.125 46.836 21.652 98.062 10.129 146.94-11.527 48.883-37.574 93.133-74.711 126.94z"/>
</svg>
